<svg width="512" height="512" viewBox="0 0 512 512" fill="none" xmlns="http://www.w3.org/2000/svg">
<circle cx="256" cy="256" r="243.5" fill="url(#paint0_linear_18_6)" stroke="#BFBFBF"/>
<path d="M246.975 35.1451C247.609 35.1394 248.243 35.1337 248.896 35.1278C250.237 35.1191 251.579 35.115 252.92 35.1153C254.961 35.1115 257.001 35.0803 259.042 35.0476C260.348 35.0425 261.654 35.0391 262.96 35.0375C263.565 35.0251 264.171 35.0128 264.795 35C269.138 35.0399 271.602 36.1502 274.945 38.8789C275.229 39.4472 275.513 40.0156 275.806 40.6011C277.718 41.0848 277.718 41.0848 280.061 41.3411C281.413 41.5257 281.413 41.5257 282.792 41.7139C283.772 41.844 284.752 41.9741 285.762 42.1081C340.149 49.9434 390.827 77.9553 424.779 121.546C425.766 122.755 425.766 122.755 426.774 123.988C450.273 153.334 471.194 197.571 470.418 236.075C470.933 236.288 471.448 236.501 471.979 236.721C474.264 238.026 475.119 238.957 476.446 241.241C476.718 243.497 476.849 245.545 476.85 247.801C476.856 248.433 476.863 249.066 476.869 249.718C476.879 251.054 476.881 252.39 476.877 253.726C476.876 255.761 476.912 257.792 476.95 259.826C476.955 261.128 476.957 262.43 476.957 263.731C476.971 264.334 476.985 264.937 477 265.558C476.954 268.882 476.406 270.968 474.369 273.527C472.14 275.686 472.14 275.686 470.418 275.686C470.406 276.244 470.394 276.803 470.381 277.378C469.583 293.795 465.286 310.106 460.085 325.631C459.804 326.485 459.804 326.485 459.518 327.357C452.42 348.691 441.377 369.201 427.362 386.77C426.436 387.944 426.436 387.944 425.492 389.142C415.053 402.154 403.494 414.384 390.334 424.659C389.507 425.329 388.68 425.998 387.828 426.688C375.853 436.21 362.86 444.046 349.001 450.493C348.417 450.772 347.833 451.051 347.232 451.339C328.24 460.408 308.236 466.386 287.384 469.259C286.636 469.364 285.888 469.469 285.118 469.578C283.731 469.765 282.341 469.934 280.949 470.083C276.426 470.67 274.43 472.029 271.5 475.465C267.556 477.437 261.756 476.595 257.376 476.628C255.997 476.642 254.618 476.666 253.239 476.698C251.247 476.746 249.257 476.764 247.264 476.777C246.652 476.797 246.039 476.816 245.407 476.836C242 476.822 240.615 476.419 237.924 474.253C236.194 472.021 236.194 472.021 236.194 470.298C235.508 470.257 234.822 470.215 234.114 470.173C193.23 467.406 154.659 450.426 122.527 425.52C121.778 424.94 121.028 424.359 120.256 423.761C115.288 419.803 110.599 415.585 105.95 411.258C105.096 410.466 105.096 410.466 104.224 409.658C100.302 405.967 96.7219 402.078 93.2489 397.965C92.7928 397.428 92.3367 396.891 91.8668 396.338C85.1325 388.344 78.97 380.142 73.4432 371.27C73.0872 370.701 72.7311 370.132 72.3643 369.546C55.708 342.692 40.8208 307.862 41.5819 275.686C40.8093 275.366 40.8093 275.366 40.0211 275.04C37.7286 273.73 36.8797 272.817 35.5541 270.519C35.2817 268.193 35.1511 266.068 35.1504 263.741C35.1439 263.088 35.1373 262.434 35.1306 261.76C35.1213 260.38 35.1188 258.999 35.1227 257.619C35.1235 255.513 35.0877 253.41 35.0495 251.304C35.045 249.96 35.0427 248.616 35.0428 247.273C35.0287 246.646 35.0145 246.02 35 245.375C35.0464 241.946 35.4548 240.504 37.6312 237.797C39.8597 236.075 39.8597 236.075 41.5819 236.075C41.5941 235.382 41.6063 234.689 41.6189 233.976C43.4331 189.257 65.763 145.064 94.9711 112.074C95.3852 111.605 95.7992 111.137 96.2258 110.654C130.388 72.2559 180.502 46.0044 231.889 41.4622C233.324 41.441 234.759 41.4329 236.194 41.4622C236.425 40.7873 236.656 40.1124 236.894 39.4171C238.987 34.7903 242.508 35.1592 246.975 35.1451ZM266.333 62.129C266.333 70.3699 266.333 78.6108 266.333 87.1014C269.051 87.9362 271.768 88.7709 274.568 89.631C286.016 93.3469 295.389 98.485 304.095 106.87C305.94 108.682 305.94 108.682 308.104 110.311C321.771 121.536 331.279 140.807 338.29 156.744C338.614 157.475 338.937 158.206 339.27 158.96C341.163 163.451 342.559 167.884 343.713 172.621C345.862 183.225 345.862 183.225 351.608 191.965C355.741 194.214 360.172 195.056 364.76 195.927C368.718 196.84 372.296 198.518 375.964 200.231C376.679 200.558 377.393 200.885 378.13 201.222C388.814 206.204 399.445 212.207 407.681 220.773C409.119 222.495 409.119 222.495 411.001 222.297C411.235 222.801 411.469 223.305 411.711 223.824C412.706 225.708 413.81 227.208 415.145 228.863C419.048 233.968 421.541 239.606 423.918 245.547C432.443 245.547 440.968 245.547 449.751 245.547C447.956 202.01 430.403 159.09 400.843 127.049C399.577 125.676 398.33 124.285 397.102 122.878C367.563 89.0888 324.731 69.7117 280.972 62.9902C280.079 62.8513 280.079 62.8513 279.168 62.7097C274.779 62.0892 270.871 62.129 266.333 62.129ZM199.166 69.8791C198.166 70.183 198.166 70.183 197.146 70.493C172.327 78.1845 149.897 90.8288 130.277 107.768C129.503 108.43 128.73 109.091 127.932 109.773C125.799 111.646 123.725 113.564 121.666 115.518C120.984 116.165 120.984 116.165 120.288 116.825C112.845 123.934 106.262 131.365 100.138 139.63C99.4057 140.594 98.6735 141.558 97.9413 142.522C92.1245 150.301 87.3833 158.572 82.9155 167.185C82.579 167.83 82.2425 168.475 81.8959 169.139C69.8796 192.461 62.2487 219.236 62.2487 245.547C70.4896 245.547 78.7305 245.547 87.2211 245.547C88.713 242.403 88.713 242.403 90.235 239.196C102.566 214.185 128.751 201.725 154.036 193.121C155.874 192.506 157.713 191.899 159.555 191.297C160.407 191.012 161.26 190.728 162.138 190.435C162.923 188.712 162.923 188.712 163.406 186.557C163.625 185.734 163.845 184.91 164.07 184.061C164.419 182.714 164.419 182.714 164.775 181.34C173.762 148.758 191.151 114.315 221.152 96.4762C228.799 92.3167 236.459 89.6052 244.805 87.1014C244.805 78.8605 244.805 70.6197 244.805 62.129C229.399 62.129 213.866 65.3398 199.166 69.8791ZM211.922 131.557C201.971 144.088 186.25 166.805 186.25 183.547C194.669 182.867 203.038 181.81 211.414 180.73C225.926 178.865 240.35 178.178 254.977 178.165C256.079 178.163 256.079 178.163 257.203 178.161C277.388 178.168 297.715 179.402 317.59 183.072C320.372 183.513 322.94 183.638 325.75 183.547C317.671 156.239 303.398 128.216 277.985 113.419C253 100.136 229.077 111.985 211.922 131.557ZM184.527 205.936C183.092 206.223 181.657 206.511 180.222 206.797C173.599 236.732 170.371 275.412 180.222 304.964C191.317 307.239 202.399 309.39 213.644 310.777C214.447 310.876 215.251 310.975 216.079 311.077C218.477 311.358 220.876 311.612 223.278 311.853C224.058 311.935 224.839 312.018 225.644 312.103C235.414 313.002 245.228 312.924 255.031 312.929C255.987 312.93 256.944 312.931 257.929 312.931C295.861 313.65 295.861 313.65 331.778 304.103C333.356 299.707 333.744 294.947 334.362 290.325C334.452 289.738 334.541 289.15 334.634 288.545C338.1 265.695 337.487 240.437 333.855 217.662C333.62 216.17 333.435 214.669 333.301 213.164C333.038 211.082 332.746 209.52 331.778 207.658C329.391 205.988 326.863 205.586 324.028 205.074C323.099 204.89 322.169 204.706 321.212 204.516C317.96 203.91 314.702 203.382 311.434 202.868C309.826 202.599 309.826 202.599 308.185 202.325C290.998 199.572 273.819 198.716 256.431 198.778C255.496 198.779 254.561 198.781 253.598 198.782C230.077 198.848 207.603 201.193 184.527 205.936ZM354.167 214.547C354.246 215.237 354.324 215.928 354.404 216.639C357.104 241.061 357.802 264.979 355.028 289.464C354.866 290.936 354.703 292.408 354.541 293.881C354.417 294.981 354.294 296.081 354.167 297.214C370.774 294.391 388.197 283.263 398.945 270.519C402.518 265.246 404.571 259.717 404.112 253.297C402.614 245.563 398.447 240.595 392.918 235.214C392.416 234.694 391.914 234.175 391.397 233.639C383.079 225.621 366.023 214.547 354.167 214.547ZM116.116 237.181C110.934 242.602 107.802 248.402 107.511 255.988C107.982 265.414 113.292 271.944 119.944 278.269C130.232 287.04 143.83 294.228 156.972 297.214C156.893 296.494 156.893 296.494 156.813 295.76C154.035 268.931 154.056 241.363 156.972 214.547C143.314 214.547 125.568 228.348 116.116 237.181ZM62.2487 266.214C62.2487 272.843 62.5893 278.462 63.648 284.889C63.8015 285.824 63.9549 286.758 64.113 287.721C70.1167 322.717 84.6529 354.703 107.888 381.603C108.559 382.387 109.231 383.171 109.923 383.978C111.788 386.099 113.695 388.165 115.638 390.215C116.041 390.641 116.445 391.068 116.86 391.508C123.699 398.694 130.93 404.971 138.888 410.881C139.364 411.242 139.839 411.602 140.329 411.973C169.506 434.045 207.932 449.632 244.805 449.632C244.805 441.391 244.805 433.15 244.805 424.659C242.248 423.807 239.69 422.954 237.055 422.076C212.624 413.805 195.313 395.83 182.805 373.853C182.495 373.312 182.186 372.771 181.867 372.213C177.972 365.327 174.501 358.302 171.503 350.98C171.214 350.278 170.924 349.575 170.626 348.852C169.024 344.771 167.844 340.779 166.942 336.486C165.426 327.448 165.426 327.448 160.639 320.04C156.918 318.098 152.911 317.429 148.817 316.666C144.972 315.771 141.485 314.109 137.919 312.445C137.199 312.114 136.478 311.782 135.735 311.441C124.389 306.146 114.043 300.112 104.443 292.047C103.863 291.566 103.282 291.084 102.684 290.587C95.5458 284.086 91.065 274.863 87.2211 266.214C78.9802 266.214 70.7393 266.214 62.2487 266.214ZM423.918 266.214C421.787 271.329 421.787 271.329 419.612 276.547C412.619 288.601 402.074 297.053 390.334 304.103C389.833 304.406 389.332 304.708 388.815 305.02C380.385 310.02 371.388 313.554 362.247 317.036C361.466 317.345 360.685 317.653 359.88 317.97C357.612 318.742 357.612 318.742 355.47 319.03C353.052 319.415 351.797 319.797 349.862 321.325C347.829 325.32 346.576 329.434 345.354 333.736C344.337 337.301 343.211 340.832 342.095 344.367C341.878 345.063 341.66 345.759 341.436 346.476C332.939 373.367 314.171 402.294 288.88 416.037C281.546 419.847 274.329 422.199 266.333 424.659C266.333 432.9 266.333 441.141 266.333 449.632C294.335 449.632 322.786 440.461 347.278 427.243C348.273 426.714 349.268 426.186 350.292 425.641C362.91 418.702 374.463 410.156 385.168 400.548C385.68 400.089 386.192 399.63 386.719 399.157C392.573 393.881 398.29 388.607 403.251 382.465C404.024 381.539 404.798 380.614 405.572 379.689C431.927 347.859 448.045 307.59 449.751 266.214C441.226 266.214 432.701 266.214 423.918 266.214ZM186.25 327.353C187.359 332.928 188.901 338.023 191.039 343.284C191.342 344.029 191.644 344.774 191.955 345.541C200.876 367.078 214.085 388.298 235.441 399.149C236.289 399.58 236.289 399.58 237.155 400.021C246.902 404.75 257.425 405.596 267.894 402.539C277.082 399.309 284.03 394.986 291.306 388.492C291.962 387.908 292.618 387.325 293.294 386.723C308.992 371.892 321.855 348.597 325.75 327.353C324.564 327.535 324.564 327.535 323.353 327.721C277.324 334.717 232.198 335.442 186.25 327.353Z" fill="url(#paint1_linear_18_6)"/>
<path d="M273.942 228.923C281.487 234.519 285.556 241.514 287.508 250.653C288.722 259.738 286.475 268.079 281.534 275.77C276.131 282.617 268.803 286.315 260.305 287.741C251.625 288.75 243.481 286.723 236.356 281.606C229.161 275.482 224.787 267.93 223.9 258.511C223.574 248.315 226.486 240.119 233.483 232.65C244.674 222.172 260.823 221.08 273.942 228.923Z" fill="url(#paint2_linear_18_6)"/>
<defs>
<linearGradient id="paint0_linear_18_6" x1="256" y1="12" x2="256" y2="500" gradientUnits="userSpaceOnUse">
<stop stop-color="#E2E2E2"/>
<stop offset="1" stop-color="#EFEDE8"/>
</linearGradient>
<linearGradient id="paint1_linear_18_6" x1="256" y1="35" x2="256" y2="476.836" gradientUnits="userSpaceOnUse">
<stop stop-color="#03696C"/>
<stop offset="0.990385" stop-color="#007BFF"/>
</linearGradient>
<linearGradient id="paint2_linear_18_6" x1="255.853" y1="223.797" x2="255.853" y2="287.993" gradientUnits="userSpaceOnUse">
<stop stop-color="#03696C"/>
<stop offset="0.990385" stop-color="#007BFF"/>
</linearGradient>
</defs>
</svg>
