<svg width="927" height="928" viewBox="0 0 927 928" fill="none" xmlns="http://www.w3.org/2000/svg">
<g clip-path="url(#clip0_24_29)">
<circle cx="463.5" cy="464" r="431.558" fill="url(#paint0_linear_24_29)" stroke="#F0F0F0" stroke-width="20.43"/>
<path d="M565.2 463.411C565.2 512.721 552.814 556.688 533.534 587.871C514.118 619.273 489.145 635.805 464 635.805C438.855 635.805 413.882 619.273 394.466 587.871C375.186 556.688 362.8 512.721 362.8 463.411C362.8 414.102 375.186 370.135 394.466 338.952C413.882 307.55 438.855 291.019 464 291.019C489.145 291.019 514.118 307.55 533.534 338.952C552.814 370.135 565.2 414.102 565.2 463.411Z" stroke="#FFEAF7" stroke-width="28.2419"/>
<path d="M463.412 565.2C414.103 565.2 370.135 552.814 338.952 533.534C307.55 514.118 291.018 489.145 291.018 463.999C291.019 438.855 307.55 413.882 338.952 394.466C370.135 375.186 414.103 362.8 463.412 362.8C512.721 362.8 556.688 375.186 587.871 394.466C619.273 413.882 635.804 438.855 635.805 464C635.805 489.145 619.273 514.118 587.871 533.534C556.688 552.814 512.721 565.2 463.412 565.2Z" stroke="#FFEAF7" stroke-width="28.2419"/>
<rect x="211" y="443.19" width="87.6191" height="40.5238" rx="20.2619" fill="#FFEAF7"/>
<rect x="629.381" y="443.19" width="87.6191" height="40.5238" rx="20.2619" fill="#FFEAF7"/>
<rect x="483.714" y="211" width="87.6191" height="40.5238" rx="20.2619" transform="rotate(90 483.714 211)" fill="#FFEAF7"/>
<rect x="483.714" y="629.381" width="87.6191" height="40.5238" rx="20.2619" transform="rotate(90 483.714 629.381)" fill="#FFEAF7"/>
<circle cx="464" cy="464" r="228.288" stroke="#FFEAF7" stroke-width="28.2419"/>
<path d="M467.684 411.635C473.082 411.635 478.476 412.312 483.861 413.665H483.86C489.045 414.856 493.932 416.861 498.514 419.672L499.428 420.247L499.436 420.251C501.272 421.444 502.594 422.994 503.221 424.926L503.343 425.272C503.92 427.005 503.991 428.795 503.567 430.606L503.564 430.619L503.561 430.63C503.116 432.416 502.275 433.998 501.044 435.347C499.734 436.782 498.064 437.668 496.111 438.014L496.11 438.013C494.077 438.39 491.972 437.842 489.888 436.691L489.871 436.682L489.854 436.672C486.42 434.675 482.961 433.234 479.476 432.336C475.989 431.438 472.062 430.98 467.684 430.98C460.986 430.98 455.456 432.343 451.008 434.971L450.997 434.978L450.986 434.985C446.55 437.519 443.189 441.225 440.897 446.171L440.693 446.642C438.611 451.545 437.535 457.579 437.535 464.8C437.535 476.121 440.238 484.427 445.365 490.012C450.46 495.564 458.12 498.478 468.669 498.478C472.299 498.478 475.981 498.114 479.717 497.381C481.85 496.963 483.951 496.454 486.024 495.858V475.744H472.324C469.675 475.744 467.366 475.047 465.637 473.434L465.613 473.412L465.589 473.388C463.978 471.769 463.248 469.639 463.248 467.201C463.248 464.701 463.962 462.522 465.641 460.964L465.665 460.942L465.689 460.92C467.419 459.431 469.708 458.798 472.324 458.798H495.522C498.187 458.798 500.492 459.555 502.137 461.319C503.859 462.967 504.597 465.26 504.597 467.907V502.22C504.597 504.528 504.127 506.602 503.083 508.35C502.088 510.173 500.461 511.439 498.383 512.208L498.377 512.209C494.147 513.754 489.32 515.048 483.907 516.097L483.878 516.103C478.439 517.061 473.088 517.542 467.825 517.542C456.641 517.541 447.054 515.429 439.142 511.113L439.134 511.109C431.33 506.798 425.364 500.657 421.267 492.722C417.176 484.798 415.166 475.471 415.166 464.8C415.166 456.726 416.314 449.413 418.642 442.884L418.65 442.863C421.071 436.346 424.524 430.764 429.022 426.148H429.023C433.616 421.437 439.175 417.865 445.673 415.426L446.287 415.192C452.651 412.809 459.792 411.635 467.684 411.635Z" fill="#FFEAF7" stroke="#FFEAF7" stroke-width="3.53023"/>
<path d="M290.309 217.263C283.292 221.243 276.579 223.325 270.17 223.511C263.819 223.664 258.036 222.116 252.82 218.866C247.605 215.615 243.221 210.859 239.669 204.596C236.907 199.725 235.178 194.919 234.482 190.179C233.811 185.347 234.137 180.718 235.457 176.29C236.745 171.804 239.066 167.652 242.419 163.835C245.797 159.926 250.154 156.459 255.489 153.433C258.389 151.789 261.511 150.402 264.855 149.271C268.166 148.083 271.699 147.421 275.454 147.284C277.356 147.125 278.93 147.535 280.176 148.515C281.446 149.404 282.36 150.61 282.918 152.133C283.5 153.566 283.714 155.092 283.56 156.712C283.431 158.242 282.815 159.587 281.711 160.75C280.575 161.854 278.952 162.506 276.843 162.706C274.643 162.881 272.413 163.341 270.153 164.086C267.86 164.773 265.583 165.758 263.321 167.041C259.436 169.244 256.583 171.782 254.763 174.653C253 177.492 252.254 180.636 252.524 184.085C252.794 187.534 254.047 191.23 256.284 195.174C259.638 201.089 263.62 204.732 268.23 206.103C272.84 207.474 277.986 206.548 283.669 203.325C285.409 202.338 287.195 201.096 289.027 199.597C290.917 198.065 292.725 196.388 294.451 194.566L294.898 202.245L286.462 187.371L280.373 190.824C278.401 191.942 276.585 192.321 274.924 191.96C273.321 191.566 272.01 190.47 270.991 188.672C269.971 186.875 269.72 185.216 270.238 183.696C270.78 182.086 272.038 180.721 274.009 179.603L286.883 172.302C288.913 171.151 290.762 170.83 292.431 171.34C294.124 171.759 295.547 172.983 296.698 175.013L307.6 194.237C308.587 195.976 309.048 197.669 308.985 199.314C308.98 200.927 308.342 202.438 307.073 203.848C304.873 206.321 302.327 208.723 299.434 211.054C296.54 213.385 293.499 215.455 290.309 217.263ZM393.58 169.646C390.665 169.978 388.323 169.439 386.552 168.031C384.774 166.556 383.711 164.295 383.364 161.248L380.264 134.024L385.182 143.629L358.585 113.344C357.278 111.882 356.581 110.184 356.495 108.248C356.467 106.238 357.074 104.491 358.314 103.008C359.613 101.451 361.587 100.522 364.236 100.22C366.091 100.009 367.833 100.28 369.462 101.034C371.083 101.722 372.677 103.05 374.243 105.019L390.484 123.902L386.907 124.31L398.475 102.159C399.625 99.8806 400.88 98.2281 402.239 97.201C403.598 96.174 405.271 95.5473 407.258 95.321C409.775 95.0344 411.801 95.4412 413.335 96.5413C414.87 97.6414 415.779 99.1482 416.064 101.062C416.416 102.967 416.042 104.989 414.943 107.127L396.012 142.396L398.546 131.942L401.646 159.166C402.362 165.459 399.674 168.952 393.58 169.646ZM498.141 160.98C495.324 160.161 493.371 158.76 492.281 156.777C491.21 154.73 491.084 152.298 491.903 149.481L506.644 98.7807C507.482 95.9 508.892 93.9148 510.875 92.8252C512.922 91.7541 515.354 91.6281 518.171 92.447L541.793 99.3152C549.475 101.549 554.847 105.159 557.91 110.146C561.055 115.087 561.66 120.887 559.725 127.544C558.477 131.833 556.428 135.299 553.577 137.941C550.809 140.538 547.381 142.18 543.293 142.866C539.289 143.507 534.694 143.073 529.508 141.566L530.779 140.06L535.388 141.401C538.141 142.201 540.378 143.58 542.1 145.539C543.84 147.434 545.023 149.93 545.65 153.028L547.938 163.066C548.423 165.22 548.372 167.184 547.787 168.958C547.221 170.668 546.098 171.904 544.418 172.665C542.822 173.381 540.775 173.376 538.278 172.65C535.782 171.924 533.882 170.817 532.58 169.327C531.341 167.856 530.43 165.855 529.847 163.325L525.771 144.749C525.412 143.117 524.699 141.868 523.632 141.002C522.647 140.091 521.387 139.412 519.85 138.966L514.569 137.43L509.571 154.618C508.752 157.435 507.374 159.429 505.436 160.602C503.517 161.71 501.085 161.836 498.141 160.98ZM518.198 124.947L529.913 128.353C533.306 129.34 536.094 129.421 538.277 128.598C540.461 127.775 541.962 125.955 542.781 123.138C543.563 120.45 543.253 118.173 541.851 116.307C540.468 114.378 538.08 112.92 534.687 111.933L522.973 108.527L518.198 124.947ZM637.821 213.027C631.933 209 627.607 204.224 624.844 198.7C622.117 193.12 621.059 187.227 621.669 181.021C622.334 174.853 624.717 168.77 628.819 162.772C631.906 158.26 635.397 154.63 639.294 151.884C643.247 149.176 647.419 147.386 651.812 146.513C656.26 145.678 660.77 145.815 665.343 146.923C669.953 147.976 674.459 150.008 678.862 153.019C684.75 157.046 689.048 161.803 691.757 167.29C694.52 172.814 695.597 178.68 694.988 184.885C694.415 191.036 692.059 197.138 687.92 203.191C684.834 207.704 681.314 211.314 677.362 214.022C673.465 216.768 669.274 218.586 664.788 219.476C660.396 220.349 655.894 220.258 651.284 219.205C646.711 218.097 642.223 216.038 637.821 213.027ZM646.515 200.315C649.431 202.31 652.378 203.316 655.355 203.333C658.332 203.349 661.255 202.441 664.124 200.607C666.994 198.774 669.67 196.041 672.154 192.409C675.88 186.961 677.567 181.896 677.216 177.214C676.864 172.531 674.515 168.703 670.168 165.73C667.307 163.773 664.36 162.768 661.328 162.713C658.389 162.641 655.484 163.522 652.615 165.356C649.783 167.134 647.107 169.867 644.585 173.554C640.859 179.002 639.153 184.095 639.467 188.832C639.818 193.514 642.167 197.342 646.515 200.315Z" fill="white"/>
<path d="M174.213 253.322C175.198 251.581 176.599 250.459 178.416 249.955C180.233 249.451 182.012 249.691 183.753 250.676C185.493 251.661 186.587 253.045 187.033 254.829C187.537 256.646 187.296 258.425 186.312 260.166L176.563 277.399C175.578 279.14 174.177 280.263 172.36 280.767C170.601 281.303 168.851 281.079 167.11 280.095C165.37 279.11 164.247 277.709 163.743 275.892C163.239 274.075 163.479 272.296 164.464 270.555L174.213 253.322ZM96.3437 384.209C97.5264 376.23 100.017 369.657 103.815 364.491C107.604 359.392 112.384 355.787 118.156 353.677C123.928 351.567 130.375 351.04 137.497 352.096C143.036 352.917 147.888 354.512 152.053 356.882C156.273 359.327 159.721 362.433 162.398 366.199C165.141 369.976 166.985 374.36 167.929 379.353C168.93 384.421 168.981 389.988 168.082 396.055C167.593 399.353 166.765 402.667 165.597 405.999C164.495 409.34 162.843 412.532 160.64 415.575C159.594 417.172 158.302 418.16 156.763 418.539C155.281 418.993 153.767 418.971 152.224 418.473C150.736 418.05 149.402 417.279 148.22 416.16C147.094 415.117 146.412 413.803 146.175 412.218C146.005 410.643 146.49 408.962 147.63 407.177C148.847 405.335 149.857 403.295 150.661 401.055C151.53 398.825 152.156 396.424 152.537 393.852C153.192 389.434 152.948 385.624 151.805 382.422C150.653 379.285 148.634 376.762 145.75 374.852C142.865 372.942 139.181 371.654 134.696 370.99C127.97 369.992 122.648 370.888 118.73 373.677C114.812 376.467 112.374 381.092 111.416 387.555C111.123 389.533 111.003 391.706 111.056 394.073C111.1 396.506 111.309 398.963 111.682 401.444L105.355 397.069L122.271 399.577L123.297 392.652C123.629 390.41 124.449 388.746 125.756 387.659C127.053 386.638 128.723 386.279 130.768 386.582C132.812 386.885 134.274 387.708 135.153 389.052C136.088 390.471 136.39 392.301 136.058 394.544L133.888 409.184C133.545 411.492 132.66 413.147 131.231 414.148C129.858 415.225 128.018 415.592 125.71 415.25L103.849 412.01C101.87 411.717 100.252 411.039 98.9943 409.976C97.7267 408.98 96.9281 407.547 96.5985 405.678C96.0028 402.423 95.677 398.937 95.6211 395.222C95.5652 391.507 95.8061 387.836 96.3437 384.209ZM93.4839 536.408C91.5811 529.533 91.3551 523.093 92.8059 517.088C94.3209 511.066 97.3126 505.88 101.781 501.531C106.267 497.245 112.012 494.133 119.015 492.195C124.284 490.737 129.293 490.215 134.042 490.63C138.809 491.109 143.153 492.431 147.073 494.598C151.01 496.828 154.369 499.841 157.149 503.637C159.993 507.415 162.127 511.874 163.55 517.015C165.452 523.889 165.67 530.297 164.201 536.237C162.75 542.242 159.791 547.419 155.322 551.769C150.918 556.1 145.182 559.244 138.115 561.2C132.846 562.659 127.828 563.148 123.061 562.669C118.312 562.255 113.936 560.941 109.934 558.728C106.014 556.562 102.632 553.59 99.788 549.812C97.008 546.016 94.9066 541.548 93.4839 536.408ZM108.326 532.3C109.268 535.705 110.872 538.374 113.136 540.307C115.4 542.239 118.22 543.43 121.596 543.879C124.971 544.329 128.779 543.966 133.02 542.793C139.381 541.032 143.937 538.249 146.688 534.444C149.439 530.639 150.113 526.198 148.708 521.123C147.783 517.781 146.179 515.112 143.897 513.116C141.697 511.165 138.91 509.965 135.534 509.516C132.223 509.049 128.415 509.411 124.11 510.603C117.749 512.363 113.161 515.155 110.346 518.978C107.594 522.783 106.921 527.224 108.326 532.3ZM152.218 679.878C150.613 677.918 149.715 675.982 149.526 674.068C149.38 672.206 149.871 670.123 151 667.819L176.969 615.257C178.098 612.953 179.511 611.364 181.209 610.491C182.906 609.617 184.606 609.43 186.309 609.931C188.064 610.39 189.638 611.47 191.033 613.172C192.765 615.286 193.589 617.239 193.506 619.031C193.465 620.874 192.859 622.922 191.688 625.175L168.106 670.868L164.557 666.536L214.074 652.339C216.513 651.634 218.614 651.464 220.378 651.828C222.193 652.151 223.904 653.292 225.509 655.252C226.819 656.85 227.505 658.529 227.567 660.288C227.681 662.005 227.121 663.583 225.889 665.024C224.698 666.517 222.863 667.59 220.382 668.243L163.675 683.29C161.236 683.995 159.119 684.092 157.322 683.582C155.525 683.072 153.824 681.837 152.218 679.878ZM243.562 776.068C240.801 774.588 239.063 772.749 238.35 770.551C237.728 768.326 238.141 765.863 239.589 763.16L263.921 717.77C265.37 715.067 267.177 713.389 269.343 712.734C271.6 712.053 274.109 712.452 276.87 713.933L306.748 729.949C308.863 731.083 310.166 732.462 310.657 734.087C311.148 735.711 310.858 737.522 309.787 739.52C308.684 741.576 307.305 742.879 305.649 743.429C304.024 743.92 302.155 743.598 300.039 742.464L277.212 730.228L270.881 742.038L291.769 753.235C293.826 754.337 295.099 755.701 295.59 757.325C296.14 758.981 295.863 760.838 294.761 762.894C293.658 764.951 292.265 766.208 290.582 766.668C288.958 767.158 287.117 766.852 285.061 765.75L264.172 754.553L257.322 767.333L280.149 779.569C282.264 780.703 283.551 782.112 284.011 783.795C284.501 785.42 284.211 787.231 283.14 789.228C282.038 791.285 280.674 792.559 279.05 793.049C277.425 793.54 275.555 793.218 273.44 792.084L243.562 776.068ZM371.186 835.833C368.27 835.521 366.101 834.485 364.68 832.724C363.266 830.897 362.715 828.525 363.026 825.608L368.636 773.107C368.954 770.124 369.994 767.922 371.755 766.501C373.582 765.087 375.954 764.536 378.871 764.847L403.332 767.461C411.286 768.31 417.209 770.921 421.1 775.293C425.065 779.605 426.678 785.208 425.942 792.102C425.467 796.543 424.059 800.315 421.716 803.417C419.447 806.46 416.36 808.678 412.457 810.071C408.627 811.405 404.027 811.785 398.657 811.212L399.644 809.507L404.417 810.017C407.267 810.321 409.712 811.286 411.751 812.912C413.797 814.472 415.4 816.721 416.561 819.661L420.577 829.142C421.432 831.177 421.727 833.12 421.463 834.969C421.205 836.751 420.317 838.165 418.797 839.21C417.351 840.195 415.335 840.549 412.75 840.273C410.165 839.997 408.1 839.24 406.556 838.002C405.078 836.772 403.83 834.962 402.812 832.574L395.537 815.002C394.898 813.458 393.976 812.354 392.773 811.689C391.644 810.965 390.284 810.518 388.693 810.348L383.224 809.764L381.322 827.563C381.011 830.479 380.004 832.685 378.302 834.179C376.608 835.607 374.236 836.158 371.186 835.833ZM384.605 796.837L396.736 798.134C400.249 798.509 403.008 798.1 405.013 796.906C407.018 795.712 408.176 793.657 408.488 790.74C408.785 787.956 408.08 785.769 406.373 784.178C404.673 782.522 402.066 781.506 398.552 781.13L386.422 779.834L384.605 796.837ZM521.471 842.935C518.797 843.765 516.542 843.697 514.707 842.731C512.871 841.765 511.528 839.913 510.679 837.176L494.52 785.126C493.65 782.325 493.688 779.974 494.634 778.075C495.561 776.112 497.17 774.775 499.462 774.063C501.499 773.431 503.21 773.319 504.593 773.727C505.976 774.135 507.645 775.013 509.599 776.361L551.615 804.782L548.941 805.612L538.208 771.04C537.377 768.366 537.413 766.121 538.316 764.305C539.282 762.469 541.102 761.136 543.776 760.306C546.45 759.476 548.673 759.554 550.445 760.539C552.28 761.505 553.613 763.325 554.443 765.999L570.869 818.908C571.62 821.328 571.586 823.467 570.767 825.327C569.929 827.123 568.427 828.357 566.262 829.029C564.098 829.701 562.26 829.853 560.749 829.484C559.283 829.032 557.582 828.164 555.648 826.88L513.603 798.363L516.277 797.533L527.01 832.106C527.86 834.843 527.802 837.13 526.836 838.966C525.934 840.781 524.145 842.104 521.471 842.935ZM663.785 791.455C662.226 792.811 660.611 793.596 658.942 793.81C657.23 793.974 655.701 793.536 654.356 792.497C652.967 791.408 651.925 789.752 651.23 787.529L634.856 730.741C634.056 727.992 633.916 725.596 634.437 723.553C635.008 721.466 636.149 719.68 637.86 718.192C639.571 716.705 641.448 715.868 643.494 715.68C645.589 715.449 647.968 715.898 650.629 717.03L704.587 741.145C706.792 742.055 708.337 743.274 709.222 744.801C710.158 746.284 710.404 747.837 709.96 749.46C709.566 751.039 708.614 752.484 707.105 753.796C705.092 755.546 703.139 756.449 701.245 756.506C699.401 756.519 697.177 755.891 694.572 754.622L682.164 748.58L690.793 747.836L659.7 774.866L661.712 766.359L665.969 779.487C666.813 782.287 667.15 784.555 666.982 786.291C666.813 788.028 665.747 789.749 663.785 791.455ZM650.896 733.493L660.315 762.009L655.053 760.223L677.014 741.131L678.05 746.591L651.047 733.362L650.896 733.493ZM779.95 678.344C778.76 680.878 777.19 682.498 775.239 683.202C773.288 683.907 771.015 683.65 768.42 682.431L719.086 659.27C716.431 658.024 714.721 656.411 713.956 654.432C713.131 652.424 713.229 650.334 714.249 648.161C715.155 646.23 716.226 644.892 717.46 644.145C718.694 643.399 720.467 642.759 722.78 642.224L772.098 630.358L770.908 632.893L738.14 617.509C735.605 616.319 733.972 614.779 733.239 612.888C732.535 610.937 732.777 608.694 733.967 606.16C735.157 603.625 736.713 602.036 738.636 601.392C740.587 600.688 742.83 600.93 745.364 602.12L795.513 625.664C797.806 626.74 799.363 628.208 800.185 630.067C800.946 631.897 800.844 633.838 799.881 635.89C798.918 637.941 797.791 639.401 796.5 640.268C795.177 641.046 793.39 641.717 791.137 642.279L741.729 654.103L742.918 651.568L775.687 666.952C778.282 668.171 779.931 669.755 780.636 671.706C781.369 673.597 781.14 675.809 779.95 678.344ZM839.329 506.655C839.053 514.45 837.317 521.093 834.121 526.583C830.925 532.073 826.542 536.221 820.973 539.026C815.406 541.764 808.958 543.003 801.629 542.744C796.166 542.55 791.232 541.542 786.827 539.718C782.424 537.828 778.68 535.227 775.596 531.916C772.513 528.538 770.22 524.522 768.717 519.865C767.15 515.14 766.469 509.88 766.674 504.083C766.783 501.019 767.261 497.867 768.11 494.628C768.894 491.321 770.03 488.426 771.519 485.943C772.584 484.113 773.896 482.859 775.455 482.18C777.013 481.502 778.587 481.324 780.176 481.647C781.768 481.903 783.181 482.52 784.414 483.498C785.646 484.475 786.47 485.705 786.885 487.188C787.233 488.667 786.943 490.258 786.015 491.96C785.012 493.926 784.242 495.9 783.704 497.882C783.103 499.795 782.765 501.818 782.689 503.95C782.543 508.08 783.22 511.573 784.72 514.428C786.156 517.214 788.348 519.359 791.296 520.865C794.245 522.37 797.918 523.2 802.315 523.356C806.712 523.512 810.468 522.944 813.582 521.653C816.63 520.36 819.002 518.376 820.697 515.701C822.329 512.957 823.218 509.52 823.364 505.389C823.425 503.657 823.291 501.784 822.962 499.771C822.566 497.756 821.936 495.766 821.072 493.801C820.277 491.771 820.106 489.998 820.56 488.479C821.016 486.895 821.861 485.657 823.093 484.767C824.328 483.81 825.749 483.226 827.357 483.016C828.899 482.804 830.423 483.092 831.93 483.879C833.439 484.599 834.629 485.842 835.5 487.607C836.817 489.989 837.814 492.926 838.49 496.419C839.17 499.845 839.449 503.257 839.329 506.655ZM833.991 384.386C835.061 387.331 835.129 389.86 834.194 391.973C833.174 394.046 831.223 395.606 828.341 396.653L779.938 414.242C777.055 415.289 774.589 415.334 772.539 414.377C770.403 413.38 768.8 411.409 767.73 408.464L756.152 376.602C755.333 374.346 755.282 372.45 756 370.912C756.718 369.374 758.142 368.219 760.272 367.444C762.465 366.648 764.362 366.597 765.962 367.292C767.5 368.01 768.679 369.497 769.498 371.752L778.344 396.095L790.938 391.519L782.844 369.244C782.047 367.051 782.008 365.185 782.726 363.648C783.421 362.047 784.865 360.849 787.058 360.052C789.251 359.255 791.128 359.247 792.688 360.027C794.226 360.745 795.393 362.201 796.19 364.394L804.285 386.669L817.913 381.717L809.067 357.374C808.247 355.118 808.228 353.21 809.009 351.65C809.727 350.112 811.151 348.956 813.281 348.182C815.474 347.385 817.34 347.346 818.877 348.064C820.415 348.782 821.594 350.269 822.413 352.524L833.991 384.386ZM768.2 272.003C769.327 273.655 769.717 275.407 769.367 277.26C769.018 279.113 768.018 280.603 766.366 281.731C764.714 282.859 762.989 283.229 761.191 282.843C759.338 282.493 757.848 281.493 756.72 279.841L745.555 263.489C744.428 261.837 744.038 260.085 744.388 258.232C744.682 256.417 745.655 254.945 747.307 253.817C748.958 252.69 750.711 252.3 752.564 252.65C754.417 252.999 755.907 253.999 757.035 255.651L768.2 272.003Z" fill="white"/>
</g>
<defs>
<linearGradient id="paint0_linear_24_29" x1="905.273" y1="22.2266" x2="21.7266" y2="905.773" gradientUnits="userSpaceOnUse">
<stop stop-color="#0059FF"/>
<stop offset="1" stop-color="#BB49A6"/>
</linearGradient>
<clipPath id="clip0_24_29">
<rect width="927" height="927" fill="white" transform="translate(0 0.5)"/>
</clipPath>
</defs>
</svg>
