<svg width="512" height="512" viewBox="0 0 512 512" fill="none" xmlns="http://www.w3.org/2000/svg">
<circle cx="256" cy="256" r="242.5" fill="url(#paint0_linear_23_2)"/>
<circle cx="256" cy="256" r="242.5" fill="url(#paint1_linear_23_2)"/>
<circle cx="256" cy="256" r="242.5" stroke="#BFBFBF" stroke-width="3"/>
<path d="M342 255.5C342 297.403 331.474 334.766 315.09 361.266C298.59 387.951 277.368 402 256 402C234.632 402 213.41 387.951 196.91 361.266C180.526 334.766 170 297.403 170 255.5C170 213.597 180.526 176.234 196.91 149.734C213.41 123.049 234.632 109 256 109C277.368 109 298.59 123.049 315.09 149.734C331.474 176.234 342 213.597 342 255.5Z" stroke="#FFEAF7" stroke-width="24"/>
<path d="M255.5 342C213.597 342 176.234 331.474 149.734 315.09C123.049 298.59 109 277.368 109 256C109 234.632 123.049 213.41 149.734 196.91C176.234 180.526 213.597 170 255.5 170C297.403 170 334.766 180.526 361.266 196.91C387.951 213.41 402 234.632 402 256C402 277.368 387.951 298.59 361.266 315.09C334.766 331.474 297.403 342 255.5 342Z" stroke="#FFEAF7" stroke-width="24"/>
<rect x="41" y="238.316" width="74.4589" height="34.4372" rx="17.2186" fill="#FFEAF7"/>
<rect x="396.541" y="238.316" width="74.4589" height="34.4372" rx="17.2186" fill="#FFEAF7"/>
<rect x="272.753" y="41" width="74.4589" height="34.4372" rx="17.2186" transform="rotate(90 272.753 41)" fill="#FFEAF7"/>
<rect x="272.753" y="396.541" width="74.4589" height="34.4372" rx="17.2186" transform="rotate(90 272.753 396.541)" fill="#FFEAF7"/>
<circle cx="256" cy="256" r="194" stroke="#FFEAF7" stroke-width="24"/>
<path d="M259.131 211.5C263.708 211.5 268.281 212.074 272.847 213.218C277.264 214.23 281.427 215.935 285.33 218.33L286.107 218.818L286.113 218.822L286.405 219.02C287.814 220.005 288.831 221.257 289.33 222.795L289.434 223.089C289.924 224.562 289.984 226.083 289.624 227.622L289.622 227.632L289.619 227.643C289.241 229.161 288.526 230.505 287.479 231.651C286.37 232.867 284.956 233.617 283.303 233.913L283.304 233.914C283.302 233.914 283.301 233.914 283.3 233.914C283.296 233.915 283.292 233.916 283.288 233.917L283.287 233.916C281.56 234.236 279.771 233.771 278 232.793L277.985 232.785L277.971 232.776C275.052 231.079 272.113 229.855 269.151 229.093C266.188 228.33 262.851 227.94 259.131 227.94C253.439 227.94 248.739 229.098 244.959 231.331L244.95 231.337L244.94 231.343C241.167 233.498 238.31 236.651 236.362 240.86C234.482 245.095 233.51 250.351 233.51 256.68C233.51 266.3 235.807 273.359 240.164 278.105C244.494 282.823 251.003 285.3 259.967 285.3C263.052 285.3 266.182 284.99 269.356 284.368C271.169 284.013 272.954 283.579 274.716 283.072V265.98H263.073C260.822 265.98 258.86 265.387 257.391 264.017L257.371 263.998L257.352 263.979C255.982 262.603 255.361 260.792 255.361 258.72C255.361 256.596 255.967 254.743 257.395 253.42L257.414 253.401L257.436 253.383C258.906 252.117 260.851 251.58 263.073 251.58H282.787C285.027 251.58 286.966 252.21 288.361 253.674C289.86 255.078 290.5 257.046 290.5 259.32V288.48C290.5 290.442 290.1 292.204 289.213 293.689C288.368 295.238 286.985 296.314 285.22 296.967L285.214 296.969C281.619 298.282 277.517 299.381 272.917 300.272L272.904 300.275L272.892 300.277C268.27 301.092 263.722 301.5 259.25 301.5C249.746 301.5 241.599 299.705 234.876 296.037L234.869 296.033C228.237 292.369 223.167 287.151 219.686 280.408C216.209 273.674 214.5 265.748 214.5 256.68C214.5 249.818 215.476 243.604 217.455 238.056L217.461 238.038C219.518 232.5 222.454 227.756 226.276 223.833L227.019 223.093C230.773 219.454 235.249 216.665 240.426 214.723L241.473 214.33C246.748 212.434 252.64 211.5 259.131 211.5Z" fill="#FFEAF7" stroke="#FFEAF7" stroke-width="3"/>
<defs>
<linearGradient id="paint0_linear_23_2" x1="500" y1="12" x2="12" y2="500" gradientUnits="userSpaceOnUse">
<stop stop-color="#008CFF"/>
<stop offset="1" stop-color="#EB55FF"/>
</linearGradient>
<linearGradient id="paint1_linear_23_2" x1="500" y1="12" x2="12" y2="500" gradientUnits="userSpaceOnUse">
<stop stop-color="#0059FF"/>
<stop offset="1" stop-color="#BB49A6"/>
</linearGradient>
</defs>
</svg>
